<svg width="30" height="30" viewBox="0 0 30 30" fill="none" xmlns="http://www.w3.org/2000/svg">
<path d="M3.9143 10.2522C4.50872 8.83551 5.37462 7.54881 6.4632 6.46465C7.54779 5.37591 8.83501 4.51 10.2523 3.91576C13.173 2.70232 16.4528 2.68039 19.3895 3.85464C19.419 4.81976 19.8234 5.7354 20.5169 6.40721C21.2105 7.07903 22.1385 7.45413 23.104 7.45291C25.17 7.45291 26.8305 5.7924 26.8305 3.72645C26.8305 1.66051 25.17 0 23.104 0C22.077 0 21.1484 0.4114 20.4762 1.08067C16.8525 -0.369664 12.6908 -0.347306 9.09556 1.16862C7.32177 1.91391 5.72685 2.98713 4.35551 4.35697C2.97087 5.74202 1.87335 7.38686 1.12593 9.1971C0.378503 11.0073 -0.00411251 12.9473 3.3334e-05 14.9058H2.9812C2.9812 13.287 3.29571 11.7219 3.9143 10.2522ZM25.8959 19.5594C25.2982 20.9784 24.4396 22.2544 23.347 23.347C22.2544 24.4396 20.9785 25.2981 19.558 25.8959C16.6372 27.1093 13.3574 27.1312 10.4207 25.957C10.3912 24.9921 9.98702 24.0767 9.29381 23.4049C8.60061 22.7332 7.67296 22.3579 6.70765 22.3587C4.6417 22.3587 2.9812 24.0192 2.9812 26.0852C2.9812 28.1511 4.6417 29.8116 6.70765 29.8116C7.73466 29.8116 8.66329 29.4002 9.33555 28.731C11.106 29.4445 12.997 29.8114 14.9058 29.8116C17.8373 29.8179 20.7052 28.9579 23.1495 27.3397C25.5938 25.7215 27.5055 23.4172 28.6445 20.7161C29.4186 18.877 29.8154 16.9012 29.8117 14.9058H26.8305C26.834 16.504 26.5161 18.0865 25.8959 19.5594Z" fill="#D2DFEE"/>
<path d="M14.9064 8.14209C11.177 8.14209 8.14217 11.1769 8.14217 14.9063C8.14217 18.6358 11.177 21.6706 14.9064 21.6706C18.6359 21.6706 21.6707 18.6358 21.6707 14.9063C21.6707 11.1769 18.6359 8.14209 14.9064 8.14209Z" fill="#D2DFEE"/>
</svg>
