<svg width="34" height="28" viewBox="0 0 34 28" fill="none" xmlns="http://www.w3.org/2000/svg">
<path d="M7.34108 0.149658C8.1533 0.149691 8.95781 0.309003 9.70827 0.617432C10.4586 0.925845 11.1407 1.37761 11.7151 1.94751C12.2896 2.51758 12.7459 3.19471 13.0569 3.9397C13.3679 4.6847 13.5276 5.48383 13.5276 6.29028C13.5275 7.09657 13.3678 7.89504 13.0569 8.63989C12.7459 9.38489 12.2897 10.062 11.7151 10.6321C11.1407 11.202 10.4586 11.6537 9.70827 11.9622C8.95781 12.2706 8.1533 12.4299 7.34108 12.4299C5.7006 12.4299 4.12643 11.7834 2.96608 10.6321C1.80583 9.48083 1.15369 7.91887 1.15358 6.29028C1.15358 4.66152 1.80569 3.09886 2.96608 1.94751C4.12643 0.796213 5.70061 0.149658 7.34108 0.149658ZM7.34108 2.44653C6.31319 2.44653 5.32736 2.85176 4.60085 3.57251C3.87435 4.29334 3.46608 5.27138 3.46608 6.29028C3.46619 7.30904 3.87445 8.28634 4.60085 9.00708C5.32737 9.72789 6.31316 10.1331 7.34108 10.1331C8.36896 10.133 9.35484 9.7279 10.0813 9.00708C10.8076 8.28635 11.215 7.30897 11.2151 6.29028C11.2151 5.27141 10.8078 4.29334 10.0813 3.57251C9.35484 2.85169 8.36896 2.4466 7.34108 2.44653Z" fill="#D2DFEE" stroke="#D2DFEE" stroke-width="0.3"/>
<path d="M4.32442 9.63367C4.47633 9.63367 4.6274 9.66279 4.76778 9.72058C4.90804 9.77837 5.0354 9.86377 5.14278 9.97058C5.2502 10.077 5.33545 10.2034 5.39375 10.3427C5.45208 10.4821 5.48256 10.632 5.48262 10.7831C5.48262 10.9343 5.45213 11.0849 5.39375 11.2245C5.33544 11.3637 5.2502 11.4901 5.14278 11.5966L4.46211 12.2694C3.18157 13.5403 2.4624 15.2638 2.46211 17.0604V20.7665C2.46211 21.0714 2.34019 21.3637 2.12325 21.579C1.90634 21.7942 1.61211 21.9149 1.30586 21.9149C0.999817 21.9148 0.706276 21.794 0.489456 21.579C0.272509 21.3637 0.149612 21.0714 0.149612 20.7665V17.0604C0.150014 14.6541 1.11397 12.3467 2.82832 10.6454L3.50606 9.97058C3.61351 9.8637 3.74166 9.77838 3.88203 9.72058C4.02227 9.66289 4.17267 9.63369 4.32442 9.63367ZM29.4777 9.03406C29.6296 9.03406 29.7807 9.06415 29.9211 9.12195C30.0613 9.17969 30.1888 9.26428 30.2961 9.37097L30.9738 10.0458C32.6884 11.7472 33.6522 14.0552 33.6525 16.4618V20.7665C33.6525 21.0714 33.5306 21.3637 33.3137 21.579C33.0968 21.7942 32.8025 21.9149 32.4963 21.9149C32.1902 21.9148 31.8967 21.794 31.6799 21.579C31.4629 21.3637 31.34 21.0714 31.34 20.7665V16.4618C31.3399 14.7772 30.7079 13.1572 29.5734 11.9139L29.34 11.6708L28.6604 10.9979C28.5526 10.8913 28.4668 10.7645 28.4084 10.6249C28.3501 10.4853 28.3205 10.3356 28.3205 10.1844C28.3205 10.0333 28.3501 9.88357 28.4084 9.74402C28.4668 9.60443 28.5526 9.47759 28.6604 9.37097C28.7677 9.26428 28.8952 9.17967 29.0354 9.12195C29.1756 9.0642 29.326 9.03411 29.4777 9.03406Z" fill="#D2DFEE" stroke="#D2DFEE" stroke-width="0.3"/>
<path d="M16.3978 16.6223C18.3051 16.6223 20.1347 17.3737 21.4837 18.7122C22.8328 20.0507 23.5911 21.8666 23.5912 23.76V26.3557C23.5912 26.6606 23.4683 26.953 23.2513 27.1682C23.0345 27.3832 22.741 27.5041 22.4349 27.5042C22.1287 27.5042 21.8344 27.3834 21.6175 27.1682C21.4006 26.953 21.2787 26.6606 21.2787 26.3557V23.76C21.2786 23.1244 21.1527 22.4947 20.9076 21.9075C20.6624 21.3202 20.3021 20.7867 19.849 20.3372C19.3959 19.8876 18.8581 19.5307 18.266 19.2874C17.6737 19.044 17.0389 18.9182 16.3978 18.9182C15.1031 18.9182 13.8618 19.4292 12.9466 20.3372C12.0315 21.2452 11.517 22.4764 11.517 23.76V26.3557C11.517 26.6606 11.395 26.953 11.1781 27.1682C10.9612 27.3834 10.6669 27.5042 10.3607 27.5042C10.0547 27.5041 9.76112 27.3832 9.5443 27.1682C9.32735 26.953 9.20445 26.6606 9.20445 26.3557V23.76C9.20451 21.8666 9.96284 20.0507 11.3119 18.7122C12.6609 17.3737 14.4905 16.6223 16.3978 16.6223ZM25.4535 0.149658C27.0937 0.149751 28.6673 0.796411 29.8275 1.94751C30.9879 3.09886 31.64 4.66152 31.64 6.29028C31.6399 7.9189 30.9878 9.48083 29.8275 10.6321C28.6672 11.7832 27.0938 12.4298 25.4535 12.4299C24.6412 12.4299 23.8368 12.2706 23.0863 11.9622C22.3357 11.6537 21.653 11.2022 21.0785 10.6321C20.504 10.062 20.0487 9.38484 19.7377 8.63989C19.4267 7.89501 19.266 7.0966 19.266 6.29028C19.266 5.48383 19.4266 4.6847 19.7377 3.9397C20.0487 3.1948 20.504 2.51753 21.0785 1.94751C21.653 1.37746 22.3358 0.925881 23.0863 0.617432C23.8367 0.309044 24.6413 0.149658 25.4535 0.149658ZM25.4535 2.44653C24.4256 2.44653 23.4398 2.85179 22.7132 3.57251C21.9867 4.29335 21.5785 5.27138 21.5785 6.29028C21.5786 7.30904 21.9868 8.28634 22.7132 9.00708C23.4398 9.72785 24.4256 10.1331 25.4535 10.1331C26.4813 10.133 27.4673 9.72787 28.1937 9.00708C28.92 8.28636 29.3274 7.30895 29.3275 6.29028C29.3275 5.27143 28.9201 4.29333 28.1937 3.57251C27.4673 2.85172 26.4813 2.44663 25.4535 2.44653Z" fill="#D2DFEE" stroke="#D2DFEE" stroke-width="0.3"/>
<path d="M16.4007 5.64026C18.041 5.64033 19.6145 6.28702 20.7747 7.43811C21.9351 8.58946 22.5872 10.1521 22.5872 11.7809C22.5871 13.4095 21.935 14.9714 20.7747 16.1227C19.6145 17.2738 18.041 17.9205 16.4007 17.9205C14.7602 17.9205 13.1861 17.274 12.0257 16.1227C10.8655 14.9714 10.2133 13.4095 10.2132 11.7809C10.2132 10.1521 10.8653 8.58946 12.0257 7.43811C13.1861 6.28681 14.7603 5.64026 16.4007 5.64026ZM16.4007 7.93713C15.3728 7.93713 14.387 8.34236 13.6605 9.06311C12.934 9.78395 12.5257 10.762 12.5257 11.7809C12.5258 12.7996 12.9341 13.7769 13.6605 14.4977C14.387 15.2185 15.3728 15.6237 16.4007 15.6237C17.4286 15.6236 18.4145 15.2185 19.141 14.4977C19.8673 13.777 20.2746 12.7996 20.2747 11.7809C20.2747 10.762 19.8674 9.78394 19.141 9.06311C18.4145 8.3423 17.4286 7.9372 16.4007 7.93713Z" fill="#D2DFEE" stroke="#D2DFEE" stroke-width="0.3"/>
</svg>
