<svg width="30" height="30" viewBox="0 0 30 30" fill="none" xmlns="http://www.w3.org/2000/svg">
<path d="M2.38493 10.4342H27.4267M2.38493 19.3777H27.4267M1.49059 14.906C1.49059 16.6677 1.83758 18.4121 2.51176 20.0397C3.18594 21.6674 4.1741 23.1462 5.41982 24.392C6.66554 25.6377 8.14442 26.6258 9.77203 27.3C11.3996 27.9742 13.1441 28.3212 14.9058 28.3212C16.6675 28.3212 18.412 27.9742 20.0396 27.3C21.6672 26.6258 23.1461 25.6377 24.3918 24.392C25.6375 23.1462 26.6257 21.6674 27.2999 20.0397C27.9741 18.4121 28.3211 16.6677 28.3211 14.906C28.3211 11.348 26.9077 7.9358 24.3918 5.41995C21.876 2.90411 18.4638 1.49072 14.9058 1.49072C11.3479 1.49072 7.93566 2.90411 5.41982 5.41995C2.90397 7.9358 1.49059 11.348 1.49059 14.906Z" stroke="#D2DFEE" stroke-width="2.98116" stroke-linecap="round" stroke-linejoin="round"/>
<path d="M14.1621 1.49072C11.6509 5.51471 10.3197 10.1627 10.3197 14.906C10.3197 19.6492 11.6509 24.2972 14.1621 28.3212M15.6527 1.49072C18.1638 5.51471 19.4951 10.1627 19.4951 14.906C19.4951 19.6492 18.1638 24.2972 15.6527 28.3212" stroke="#D2DFEE" stroke-width="2.98116" stroke-linecap="round" stroke-linejoin="round"/>
</svg>
