<svg width="28" height="23" viewBox="0 0 28 23" fill="none" xmlns="http://www.w3.org/2000/svg">
<path d="M2.8 22.4C2.03 22.4 1.37107 22.1261 0.8232 21.5782C0.275333 21.0303 0.000933333 20.3709 0 19.6V2.8C0 2.03 0.2744 1.37107 0.8232 0.8232C1.372 0.275333 2.03093 0.000933333 2.8 0H25.2C25.97 0 26.6294 0.2744 27.1782 0.8232C27.727 1.372 28.0009 2.03093 28 2.8V19.6C28 20.37 27.7261 21.0294 27.1782 21.5782C26.6303 22.127 25.9709 22.4009 25.2 22.4H2.8ZM14 12.6L2.8 5.6V19.6H25.2V5.6L14 12.6ZM14 9.8L25.2 2.8H14H2.8L14 9.8ZM2.8 5.6V2.8V19.6V5.6Z" fill="#D2DFEE"/>
</svg>
