<svg width="26" height="29" viewBox="0 0 26 29" fill="none" xmlns="http://www.w3.org/2000/svg">
<path d="M3.22959 25.0293H8.07398V16.9554C8.07398 16.4978 8.229 16.1146 8.53905 15.8056C8.84909 15.4967 9.23233 15.3416 9.68878 15.3406H16.148C16.6055 15.3406 16.9893 15.4956 17.2993 15.8056C17.6094 16.1157 17.7638 16.4989 17.7628 16.9554V25.0293H22.6072V10.4962L12.9184 3.22959L3.22959 10.4962V25.0293ZM0 25.0293V10.4962C0 9.98483 0.11465 9.50039 0.343951 9.04286C0.573253 8.58534 0.889215 8.20855 1.29184 7.9125L10.9806 0.645919C11.5458 0.215306 12.1917 0 12.9184 0C13.645 0 14.291 0.215306 14.8561 0.645919L24.5449 7.9125C24.9486 8.20855 25.2651 8.58534 25.4944 9.04286C25.7237 9.50039 25.8378 9.98483 25.8367 10.4962V25.0293C25.8367 25.9175 25.5202 26.6781 24.8872 27.3111C24.2542 27.9441 23.4942 28.26 22.6072 28.2589H16.148C15.6904 28.2589 15.3072 28.1039 14.9982 27.7939C14.6893 27.4838 14.5342 27.1006 14.5332 26.6441V18.5702H11.3036V26.6441C11.3036 27.1017 11.1486 27.4855 10.8385 27.7955C10.5285 28.1055 10.1452 28.26 9.68878 28.2589H3.22959C2.34146 28.2589 1.58142 27.943 0.9495 27.3111C0.317576 26.6791 0.00107653 25.9186 0 25.0293Z" fill="#D2DFEE"/>
</svg>
