<svg width="29" height="32" viewBox="0 0 29 32" fill="none" xmlns="http://www.w3.org/2000/svg">
<path d="M23.7041 0.0501709C24.855 0.0501709 25.9602 0.462251 26.7754 1.19763C27.5908 1.93321 28.0498 2.93224 28.0498 3.97498V27.225C28.0498 28.2678 27.5908 29.2667 26.7754 30.0023C25.9602 30.7377 24.8551 31.1498 23.7041 31.1498H5.2959C4.14501 31.1498 3.03983 30.7377 2.22461 30.0023C1.40921 29.2667 0.950203 28.2678 0.950195 27.225V3.97498C0.950197 2.93224 1.4092 1.93321 2.22461 1.19763C3.03982 0.462241 4.14501 0.0501709 5.2959 0.0501709H23.7041ZM3.50488 27.225C3.50489 27.6504 3.69207 28.0591 4.02734 28.3617C4.3629 28.6644 4.81934 28.8353 5.2959 28.8353H23.7041C24.1807 28.8353 24.6371 28.6644 24.9727 28.3617C25.3079 28.0591 25.4951 27.6504 25.4951 27.225V22.2924H3.50488V27.225ZM21.8633 24.4076C22.2005 24.4076 22.5249 24.5282 22.7646 24.7445C23.0046 24.961 23.1405 25.2553 23.1406 25.5638C23.1406 25.8725 23.0047 26.1677 22.7646 26.3842C22.5249 26.6005 22.2004 26.7211 21.8633 26.7211H7.13672C6.7996 26.7211 6.47517 26.6005 6.23535 26.3842C5.99534 26.1677 5.85938 25.8725 5.85938 25.5638C5.85949 25.2553 5.99546 24.961 6.23535 24.7445C6.47518 24.5282 6.79955 24.4076 7.13672 24.4076H21.8633ZM5.2959 2.36462C4.81935 2.36462 4.3629 2.53554 4.02734 2.83826C3.69206 3.1408 3.50488 3.54961 3.50488 3.97498V19.9789H7.08594V16.7074C7.08594 16.1052 7.35211 15.528 7.82227 15.1039C8.2922 14.6802 8.92838 14.4428 9.59082 14.4427H19.4092C20.0716 14.4428 20.7078 14.6802 21.1777 15.1039C21.6479 15.528 21.9141 16.1052 21.9141 16.7074V19.9789H25.4951V3.97498C25.4951 3.54961 25.3079 3.1408 24.9727 2.83826C24.6371 2.53554 24.1807 2.36462 23.7041 2.36462H5.2959ZM14.5 4.47888C15.8137 4.47888 17.0746 4.9492 18.0049 5.78845C18.9353 6.62785 19.459 7.76787 19.459 8.9574C19.4589 10.1468 18.9351 11.2861 18.0049 12.1254C17.0746 12.9646 15.8137 13.4359 14.5 13.4359C13.1863 13.4359 11.9254 12.9646 10.9951 12.1254C10.0649 11.2861 9.5411 10.1468 9.54102 8.9574C9.54102 7.76787 10.0647 6.62785 10.9951 5.78845C11.9254 4.9492 13.1863 4.47888 14.5 4.47888Z" fill="#D2DFEE" stroke="#D2DFEE" stroke-width="0.1"/>
</svg>
